<svg width="49" height="48" viewBox="0 0 49 48" fill="none" xmlns="http://www.w3.org/2000/svg">
<g clip-path="url(#clip0_147_72)">
<path d="M31.304 42V28.068H35.97L36.668 22.652H31.304V19.196C31.304 17.628 31.74 16.558 33.988 16.558H36.856V11.714C35.4676 11.5667 34.0722 11.4952 32.676 11.5C28.542 11.5 25.712 14.024 25.712 18.66V22.652H21.036V28.068H25.712V42H8.5C7.96957 42 7.46086 41.7893 7.08579 41.4142C6.71071 41.0391 6.5 40.5304 6.5 40V8C6.5 7.46957 6.71071 6.96086 7.08579 6.58579C7.46086 6.21071 7.96957 6 8.5 6H40.5C41.0304 6 41.5391 6.21071 41.9142 6.58579C42.2893 6.96086 42.5 7.46957 42.5 8V40C42.5 40.5304 42.2893 41.0391 41.9142 41.4142C41.5391 41.7893 41.0304 42 40.5 42H31.304V42Z" fill="#BCBCBC"/>
</g>
<defs>
<clipPath id="clip0_147_72">
<rect width="48" height="48" fill="white" transform="translate(0.5)"/>
</clipPath>
</defs>
</svg>
