<svg width="32" height="32" viewBox="0 0 32 32" fill="none" xmlns="http://www.w3.org/2000/svg">
<g clip-path="url(#clip0_147_256)">
<path d="M8.15451 26.7826C6.45321 25.5464 5.06893 23.9248 4.11503 22.0506C3.16112 20.1764 2.66473 18.1029 2.66651 16C2.66651 8.63596 8.63584 2.66663 15.9998 2.66663C23.3638 2.66663 29.3332 8.63596 29.3332 16C29.335 18.1029 28.8386 20.1764 27.8847 22.0506C26.9308 23.9248 25.5465 25.5464 23.8452 26.7826L22.4918 24.464C24.2604 23.1074 25.5595 21.2309 26.2068 19.0981C26.8541 16.9653 26.817 14.6832 26.1007 12.5726C25.3845 10.4619 24.025 8.62866 22.2133 7.33031C20.4016 6.03195 18.2287 5.33374 15.9998 5.33374C13.771 5.33374 11.5981 6.03195 9.78637 7.33031C7.97469 8.62866 6.61523 10.4619 5.89896 12.5726C5.18269 14.6832 5.14559 16.9653 5.79288 19.0981C6.44016 21.2309 7.73931 23.1074 9.50784 24.464L8.15451 26.7826V26.7826ZM10.8665 22.136C9.60654 21.0819 8.70163 19.6654 8.27471 18.0791C7.84779 16.4928 7.91958 14.8135 8.4803 13.2694C9.04103 11.7253 10.0635 10.3913 11.4088 9.44855C12.7542 8.50581 14.3571 8.00009 15.9998 8.00009C17.6426 8.00009 19.2455 8.50581 20.5909 9.44855C21.9362 10.3913 22.9587 11.7253 23.5194 13.2694C24.0801 14.8135 24.1519 16.4928 23.725 18.0791C23.2981 19.6654 22.3931 21.0819 21.1332 22.136L19.7598 19.7813C20.5089 19.0367 21.02 18.0864 21.2284 17.051C21.4367 16.0156 21.333 14.9416 20.9302 13.9652C20.5275 12.9888 19.8439 12.154 18.9662 11.5666C18.0884 10.9791 17.056 10.6655 15.9998 10.6655C14.9437 10.6655 13.9113 10.9791 13.0335 11.5666C12.1558 12.154 11.4722 12.9888 11.0695 13.9652C10.6667 14.9416 10.563 16.0156 10.7713 17.051C10.9797 18.0864 11.4908 19.0367 12.2398 19.7813L10.8665 22.136V22.136ZM14.6665 17.3333H17.3332V29.3333H14.6665V17.3333Z" fill="white"/>
</g>
<defs>
<clipPath id="clip0_147_256">
<rect width="32" height="32" fill="white"/>
</clipPath>
</defs>
</svg>
