<svg width="49" height="48" viewBox="0 0 49 48" fill="none" xmlns="http://www.w3.org/2000/svg">
<g clip-path="url(#clip0_147_17)">
<path d="M24.5 4C13.45 4 4.5 12.95 4.5 24C4.49773 28.1986 5.81763 32.2912 8.27243 35.6974C10.7272 39.1035 14.1923 41.6501 18.176 42.976C19.176 43.15 19.55 42.55 19.55 42.024C19.55 41.55 19.524 39.976 19.524 38.3C14.5 39.226 13.2 37.076 12.8 35.95C12.574 35.374 11.6 33.6 10.75 33.124C10.05 32.75 9.05 31.824 10.724 31.8C12.3 31.774 13.424 33.25 13.8 33.85C15.6 36.874 18.476 36.024 19.624 35.5C19.8 34.2 20.324 33.326 20.9 32.826C16.45 32.326 11.8 30.6 11.8 22.95C11.8 20.774 12.574 18.976 13.85 17.574C13.65 17.074 12.95 15.024 14.05 12.274C14.05 12.274 15.724 11.75 19.55 14.326C21.1781 13.8741 22.8603 13.6467 24.55 13.65C26.25 13.65 27.95 13.874 29.55 14.324C33.374 11.724 35.05 12.276 35.05 12.276C36.15 15.026 35.45 17.076 35.25 17.576C36.524 18.976 37.3 20.75 37.3 22.95C37.3 30.626 32.626 32.326 28.176 32.826C28.9 33.45 29.526 34.65 29.526 36.526C29.526 39.2 29.5 41.35 29.5 42.026C29.5 42.55 29.876 43.174 30.876 42.974C34.8461 41.6336 38.2958 39.082 40.7398 35.6783C43.1838 32.2746 44.4989 28.1902 44.5 24C44.5 12.95 35.55 4 24.5 4Z" fill="#BCBCBC"/>
</g>
<defs>
<clipPath id="clip0_147_17">
<rect width="48" height="48" fill="white" transform="translate(0.5)"/>
</clipPath>
</defs>
</svg>
