<svg width="32" height="32" viewBox="0 0 32 32" fill="none" xmlns="http://www.w3.org/2000/svg">
<g clip-path="url(#clip0_147_244)">
<path d="M15.9998 2.66663C23.3638 2.66663 29.3332 8.63596 29.3332 16C29.3332 23.364 23.3638 29.3333 15.9998 29.3333C8.63584 29.3333 2.6665 23.364 2.6665 16C2.6665 8.63596 8.63584 2.66663 15.9998 2.66663ZM15.9998 5.33329C13.1709 5.33329 10.4578 6.4571 8.45736 8.45749C6.45698 10.4579 5.33317 13.171 5.33317 16C5.33317 18.8289 6.45698 21.542 8.45736 23.5424C10.4578 25.5428 13.1709 26.6666 15.9998 26.6666C18.8288 26.6666 21.5419 25.5428 23.5423 23.5424C25.5427 21.542 26.6665 18.8289 26.6665 16C26.6665 13.171 25.5427 10.4579 23.5423 8.45749C21.5419 6.4571 18.8288 5.33329 15.9998 5.33329ZM18.6665 13.3333C19.0201 13.3333 19.3593 13.4738 19.6093 13.7238C19.8594 13.9739 19.9998 14.313 19.9998 14.6666V20H17.9998V25.3333H13.9998V20H11.9998V14.6666C11.9998 14.313 12.1403 13.9739 12.3904 13.7238C12.6404 13.4738 12.9795 13.3333 13.3332 13.3333H18.6665ZM15.9998 6.66663C16.7071 6.66663 17.3854 6.94758 17.8855 7.44767C18.3856 7.94777 18.6665 8.62605 18.6665 9.33329C18.6665 10.0405 18.3856 10.7188 17.8855 11.2189C17.3854 11.719 16.7071 12 15.9998 12C15.2926 12 14.6143 11.719 14.1142 11.2189C13.6141 10.7188 13.3332 10.0405 13.3332 9.33329C13.3332 8.62605 13.6141 7.94777 14.1142 7.44767C14.6143 6.94758 15.2926 6.66663 15.9998 6.66663Z" fill="white"/>
</g>
<defs>
<clipPath id="clip0_147_244">
<rect width="32" height="32" fill="white"/>
</clipPath>
</defs>
</svg>
