<svg width="49" height="48" viewBox="0 0 49 48" fill="none" xmlns="http://www.w3.org/2000/svg">
<g clip-path="url(#clip0_147_67)">
<path d="M24.5 4C29.934 4 30.612 4.02 32.744 4.12C34.874 4.22 36.324 4.554 37.6 5.05C38.92 5.558 40.032 6.246 41.144 7.356C42.161 8.35579 42.9479 9.56518 43.45 10.9C43.944 12.174 44.28 13.626 44.38 15.756C44.474 17.888 44.5 18.566 44.5 24C44.5 29.434 44.48 30.112 44.38 32.244C44.28 34.374 43.944 35.824 43.45 37.1C42.9494 38.4356 42.1622 39.6452 41.144 40.644C40.1439 41.6606 38.9346 42.4475 37.6 42.95C36.326 43.444 34.874 43.78 32.744 43.88C30.612 43.974 29.934 44 24.5 44C19.066 44 18.388 43.98 16.256 43.88C14.126 43.78 12.676 43.444 11.4 42.95C10.0647 42.4489 8.85505 41.6619 7.856 40.644C6.83881 39.6444 6.05186 38.4349 5.55 37.1C5.054 35.826 4.72 34.374 4.62 32.244C4.526 30.112 4.5 29.434 4.5 24C4.5 18.566 4.52 17.888 4.62 15.756C4.72 13.624 5.054 12.176 5.55 10.9C6.05047 9.56436 6.83761 8.35464 7.856 7.356C8.85534 6.33846 10.0649 5.55146 11.4 5.05C12.676 4.554 14.124 4.22 16.256 4.12C18.388 4.026 19.066 4 24.5 4ZM24.5 14C21.8478 14 19.3043 15.0536 17.4289 16.9289C15.5536 18.8043 14.5 21.3478 14.5 24C14.5 26.6522 15.5536 29.1957 17.4289 31.0711C19.3043 32.9464 21.8478 34 24.5 34C27.1522 34 29.6957 32.9464 31.5711 31.0711C33.4464 29.1957 34.5 26.6522 34.5 24C34.5 21.3478 33.4464 18.8043 31.5711 16.9289C29.6957 15.0536 27.1522 14 24.5 14ZM37.5 13.5C37.5 12.837 37.2366 12.2011 36.7678 11.7322C36.2989 11.2634 35.663 11 35 11C34.337 11 33.7011 11.2634 33.2322 11.7322C32.7634 12.2011 32.5 12.837 32.5 13.5C32.5 14.163 32.7634 14.7989 33.2322 15.2678C33.7011 15.7366 34.337 16 35 16C35.663 16 36.2989 15.7366 36.7678 15.2678C37.2366 14.7989 37.5 14.163 37.5 13.5ZM24.5 18C26.0913 18 27.6174 18.6321 28.7426 19.7574C29.8679 20.8826 30.5 22.4087 30.5 24C30.5 25.5913 29.8679 27.1174 28.7426 28.2426C27.6174 29.3679 26.0913 30 24.5 30C22.9087 30 21.3826 29.3679 20.2574 28.2426C19.1321 27.1174 18.5 25.5913 18.5 24C18.5 22.4087 19.1321 20.8826 20.2574 19.7574C21.3826 18.6321 22.9087 18 24.5 18Z" fill="#BCBCBC"/>
</g>
<defs>
<clipPath id="clip0_147_67">
<rect width="48" height="48" fill="white" transform="translate(0.5)"/>
</clipPath>
</defs>
</svg>
