<svg width="32" height="32" viewBox="0 0 32 32" fill="none" xmlns="http://www.w3.org/2000/svg">
<g clip-path="url(#clip0_147_250)">
<path d="M16.0002 9.33328C18.8291 9.33328 21.5422 10.4571 23.5426 12.4575C25.543 14.4579 26.6668 17.171 26.6668 20C26.6668 22.8289 25.543 25.542 23.5426 27.5424C21.5422 29.5428 18.8291 30.6666 16.0002 30.6666C13.1712 30.6666 10.4581 29.5428 8.45769 27.5424C6.4573 25.542 5.3335 22.8289 5.3335 20C5.3335 17.171 6.4573 14.4579 8.45769 12.4575C10.4581 10.4571 13.1712 9.33328 16.0002 9.33328ZM16.0002 12C13.8784 12 11.8436 12.8428 10.3433 14.3431C8.84302 15.8434 8.00016 17.8782 8.00016 20C8.00016 22.1217 8.84302 24.1565 10.3433 25.6568C11.8436 27.1571 13.8784 28 16.0002 28C18.1219 28 20.1567 27.1571 21.657 25.6568C23.1573 24.1565 24.0002 22.1217 24.0002 20C24.0002 17.8782 23.1573 15.8434 21.657 14.3431C20.1567 12.8428 18.1219 12 16.0002 12ZM16.0002 14L17.7642 17.5733L21.7068 18.1466L18.8535 20.9266L19.5268 24.8546L16.0002 23L12.4735 24.8533L13.1468 20.9266L10.2935 18.1453L14.2362 17.572L16.0002 14ZM24.0002 2.66662V6.66662L22.1828 8.18395C20.6748 7.39273 19.0282 6.89973 17.3335 6.73195V2.66662H24.0002ZM14.6668 2.66528V6.73195C12.9726 6.89948 11.3266 7.39202 9.81883 8.18262L8.00016 6.66662V2.66662L14.6668 2.66528Z" fill="white"/>
</g>
<defs>
<clipPath id="clip0_147_250">
<rect width="32" height="32" fill="white"/>
</clipPath>
</defs>
</svg>
